<svg xmlns="http://www.w3.org/2000/svg" width="74" height="121" viewBox="0 0 74 121">
  <path fill="black" fill-rule="evenodd" d="M 11 7 L 10 9 L 9 31 L 9 56 L 7 60 L 6 60 L 6 63 L 8 64 L 8 75 L 7 107 L 8 109 L 14 109 L 15 106 L 16 103 L 16 98 L 17 97 L 17 93 L 15 95 L 14 97 L 13 68 L 14 65 L 16 63 L 28 63 L 37 62 L 44 60 L 53 61 L 53 66 L 52 82 L 53 96 L 55 105 L 55 108 L 55 115 L 59 115 L 60 113 L 61 110 L 61 108 L 60 98 L 58 88 L 58 61 L 61 58 L 65 58 L 67 57 L 67 54 L 61 54 L 59 52 L 59 48 L 60 35 L 62 26 L 63 15 L 63 12 L 61 10 L 56 11 L 55 14 L 54 32 L 54 50 L 53 53 L 51 55 L 42 55 L 32 57 L 19 58 L 14 57 L 14 50 L 15 26 L 17 8 L 14 5 Z"/>
</svg>