<svg xmlns="http://www.w3.org/2000/svg" width="98" height="128" viewBox="0 0 98 128">
  <path fill="black" fill-rule="evenodd" d="M 83 5 L 81 7 L 80 10 L 77 17 L 71 26 L 71 28 L 57 55 L 54 60 L 52 63 L 47 68 L 43 67 L 43 66 L 39 61 L 38 59 L 37 57 L 34 48 L 32 40 L 28 21 L 27 18 L 24 12 L 19 13 L 19 17 L 18 19 L 16 21 L 11 19 L 11 23 L 10 24 L 9 35 L 8 48 L 8 73 L 6 82 L 5 93 L 6 111 L 8 112 L 10 111 L 11 109 L 12 107 L 13 100 L 14 94 L 15 83 L 15 71 L 16 58 L 18 43 L 19 34 L 20 30 L 22 26 L 23 28 L 24 29 L 25 33 L 29 52 L 30 55 L 31 58 L 33 63 L 34 65 L 37 70 L 40 73 L 43 75 L 45 75 L 47 76 L 51 74 L 53 72 L 53 71 L 56 68 L 58 65 L 61 59 L 70 42 L 71 38 L 77 29 L 79 23 L 81 21 L 82 47 L 80 63 L 81 75 L 81 80 L 80 86 L 80 89 L 81 96 L 82 103 L 83 109 L 85 114 L 85 119 L 90 121 L 91 121 L 92 114 L 90 111 L 89 106 L 88 101 L 87 94 L 86 84 L 86 61 L 88 45 L 88 10 L 87 9 L 87 6 L 85 5 Z"/>
</svg>