<?xml version="1.0" encoding="UTF-8" standalone="no"?>
<!-- Created with Inkscape (http://www.inkscape.org/) -->

<svg
   width="85.120903mm"
   height="108.64411mm"
   viewBox="0 0 85.120903 108.64411"
   version="1.1"
   id="svg1"
   xml:space="preserve"
   xmlns:inkscape="http://www.inkscape.org/namespaces/inkscape"
   xmlns:sodipodi="http://sodipodi.sourceforge.net/DTD/sodipodi-0.dtd"
   xmlns="http://www.w3.org/2000/svg"
   xmlns:svg="http://www.w3.org/2000/svg"><sodipodi:namedview
     id="namedview1"
     pagecolor="#ffffff"
     bordercolor="#000000"
     borderopacity="0.25"
     inkscape:showpageshadow="2"
     inkscape:pageopacity="0.0"
     inkscape:pagecheckerboard="0"
     inkscape:deskcolor="#d1d1d1"
     inkscape:document-units="mm"
     showguides="true"><sodipodi:guide
       position="3.0883676,103.04757"
       orientation="0,-1"
       id="guide1"
       inkscape:locked="false" /><sodipodi:guide
       position="16.668884,2.6698329"
       orientation="0,-1"
       id="guide3"
       inkscape:locked="false" /><sodipodi:guide
       position="26.1162,-46.338117"
       orientation="0,-1"
       id="guide4"
       inkscape:locked="false" /><sodipodi:guide
       position="6.0406536,131.97998"
       orientation="1,0"
       id="guide5"
       inkscape:locked="false" /><sodipodi:guide
       position="56.819975,126.0754"
       orientation="1,0"
       id="guide6"
       inkscape:locked="false" /><sodipodi:guide
       position="-24.663123,53.449163"
       orientation="0,-1"
       id="guide7"
       inkscape:locked="false" /><inkscape:page
       x="0"
       y="0"
       width="85.120903"
       height="108.64411"
       id="page2"
       margin="0"
       bleed="0" /></sodipodi:namedview><defs
     id="defs1" /><g
     inkscape:label="Layer 1"
     inkscape:groupmode="layer"
     id="layer1"
     transform="translate(-43.557755,-44.592324)"><path
       style="fill:#000000"
       d="m 43.771657,63.728738 c 0.216303,-0.488592 1.836898,-2.096196 1.974461,-1.958632 0.04069,0.04069 0.342453,-0.0768 0.670574,-0.26109 0.32812,-0.184294 0.774671,-0.335081 0.992334,-0.335081 0.217664,0 0.849355,-0.273145 1.403759,-0.60699 0.554405,-0.333845 1.409603,-0.725294 1.900441,-0.869887 0.490838,-0.144593 1.205087,-0.414411 1.587218,-0.599595 0.382132,-0.185185 1.398255,-0.548767 2.258052,-0.80796 5.303207,-1.242175 2.868881,-1.681579 8.268558,-2.300555 0.90565,-0.09424 1.781305,-0.284191 1.992732,-0.43228 0.207438,-0.145295 0.721694,-0.264173 1.142792,-0.264173 0.52896,0 1.121059,-0.182308 1.915434,-0.589767 1.217216,-0.624344 2.206393,-0.893112 3.96553,-1.077467 l 1.078765,-0.113053 1.501571,-1.521862 c 1.692032,-1.714895 2.012155,-2.148823 2.421882,-3.282867 0.386638,-1.070139 0.828727,-1.926102 0.994796,-1.926102 0.07468,0 0.386083,-0.239204 0.69201,-0.531565 0.396628,-0.379039 0.494677,-0.569609 0.341707,-0.664149 -0.159489,-0.09857 -0.127157,-0.211652 0.126027,-0.44078 0.19125,-0.17308 0.433054,-0.251027 0.551544,-0.177796 0.123181,0.07613 0.30846,-0.0029 0.445186,-0.189879 0.128807,-0.176154 0.234194,-0.237296 0.234194,-0.135872 0,0.117928 0.407021,0.160641 1.129026,0.118482 1.165327,-0.06805 1.336748,0.0076 0.840259,0.370602 -0.350576,0.256348 -0.1916,0.8226 0.189851,0.676223 0.143895,-0.05522 0.244558,-0.186043 0.223696,-0.290724 -0.02086,-0.104681 0.09781,-0.220041 0.263711,-0.256357 0.179885,-0.03938 0.715412,0.298187 1.326716,0.836279 1.276277,1.123426 1.585022,1.943763 1.585022,4.211416 0,1.767748 -0.29878,2.630188 -1.215433,3.508397 -0.286841,0.274811 -0.52153,0.583355 -0.52153,0.685653 0,0.220703 -2.449228,2.482085 -3.162514,2.919962 -0.273225,0.167729 -0.547785,0.441301 -0.610133,0.607937 -0.136441,0.36466 -2.217468,3.460064 -2.65597,3.950596 -0.1708,0.191066 -0.430724,0.706852 -0.57761,1.146191 -0.146885,0.439339 -0.505403,1.203022 -0.796707,1.697075 -0.291304,0.494053 -0.577484,1.088888 -0.635955,1.321857 -0.05847,0.232969 -0.211593,0.510955 -0.340271,0.617748 -0.128677,0.106793 -0.320951,0.637601 -0.427274,1.179574 -0.106324,0.541974 -0.338267,1.337141 -0.515429,1.76704 -0.427535,1.037451 -1.047306,2.892884 -1.047306,3.135364 0,0.106417 -0.232644,0.723544 -0.516986,1.371392 -0.284343,0.647849 -0.5559,1.520747 -0.603461,1.939773 -0.04756,0.419027 -0.157809,1.387173 -0.244996,2.151437 -0.08719,0.764263 -0.248359,1.617051 -0.358158,1.895082 -0.109799,0.278032 -0.161877,0.747012 -0.115729,1.042178 0.25126,1.607073 -0.05173,5.873968 -0.506807,7.137124 -0.368413,1.022607 -0.505143,7.375497 -0.169066,7.855314 0.199839,0.28531 0.526542,0.367965 1.856524,0.469695 2.147968,0.164298 2.140473,0.16463 3.43782,-0.152171 3.412876,-0.833394 4.186218,-0.927688 4.500687,-0.548776 0.127407,0.153516 0.433119,0.279119 0.67936,0.279119 0.34822,0 0.401393,-0.04632 0.239276,-0.208435 -0.432597,-0.432598 -0.205149,-0.619887 0.877166,-0.722292 0.597081,-0.05649 1.554582,-0.185391 2.12778,-0.286439 0.573197,-0.101048 1.550239,-0.250261 2.171203,-0.331585 0.620964,-0.08132 1.419628,-0.274186 1.774808,-0.428581 0.35518,-0.154396 0.795568,-0.280719 0.97864,-0.280719 0.183072,0 0.96482,-0.316307 1.737216,-0.702904 0.772397,-0.386596 1.853562,-0.819906 2.402588,-0.962909 0.549027,-0.143003 1.140693,-0.412922 1.314814,-0.599819 0.174121,-0.186897 0.496342,-0.339813 0.716046,-0.339813 0.798716,0 3.194357,-0.879236 3.692514,-1.355207 0.273594,-0.261409 1.083668,-0.86398 1.800168,-1.339046 0.71649,-0.475067 1.3418,-0.911317 1.38957,-0.969445 0.0478,-0.05813 0.43858,-0.3249 0.86848,-0.592826 0.4299,-0.267925 1.08049,-0.741465 1.44576,-1.052311 0.42643,-0.362893 1.07919,-0.675009 1.82381,-0.872054 1.26286,-0.334183 1.97282,-0.816672 4.27379,-2.904478 4.50186,-4.084813 5.29841,-5.300612 5.42721,-8.283792 0.0373,-0.863751 0.15104,-1.783894 0.25278,-2.044761 0.10173,-0.260867 0.25176,-1.060529 0.33339,-1.777026 0.0816,-0.716498 0.2719,-1.928029 0.42283,-2.692293 0.15092,-0.764263 0.23361,-1.545897 0.18375,-1.736963 -0.0837,-0.320766 0.11195,-1.073214 0.71228,-2.739231 0.12978,-0.360182 0.23597,-0.872152 0.23597,-1.137711 0,-0.265559 0.0776,-0.560475 0.17254,-0.655368 0.39137,-0.391375 1.08532,-2.500052 1.21092,-3.679607 0.0812,-0.762308 0.24724,-1.388533 0.41837,-1.577632 0.23557,-0.260302 0.26847,-0.593755 0.19371,-1.963091 -0.0886,-1.623048 -0.0817,-1.661156 0.4347,-2.373959 0.28863,-0.398438 0.60707,-0.724433 0.70764,-0.724433 0.10057,0 0.13455,-0.07816 0.0755,-0.173696 -0.059,-0.09553 -0.0322,-0.173697 0.0596,-0.173697 0.0918,0 0.24823,-0.233137 0.34756,-0.518083 0.18176,-0.521388 1.46589,-1.913665 1.76502,-1.913665 0.0884,0 0.5304,0.23449 0.98232,0.521089 0.45192,0.286599 0.93,0.521089 1.0624,0.521089 0.1324,0 0.59164,0.287539 1.02052,0.638976 1.54002,1.26193 2.17468,3.620022 1.53861,5.716757 -0.14227,0.468965 -0.25951,1.136205 -0.26055,1.482756 -0.001,0.346851 -0.1193,0.727547 -0.2631,0.846886 -0.23014,0.191 -0.21727,0.287899 0.10814,0.814428 0.30383,0.491606 0.34715,0.741967 0.24418,1.411166 -0.0689,0.447442 -0.14831,1.285337 -0.17657,1.861988 -0.0283,0.576652 -0.1374,1.358286 -0.24253,1.736963 -0.10513,0.378678 -0.19158,1.008196 -0.19212,1.398929 -10e-4,0.927052 -0.57208,3.141965 -1.02986,3.996072 -0.19837,0.370119 -0.36067,0.739937 -0.36067,0.821816 0,0.08188 -0.14201,0.329399 -0.31557,0.550044 -0.27036,0.343716 -0.52334,1.201701 -0.82858,2.810192 -0.0394,0.207586 -0.27121,0.614614 -0.51513,0.904507 -0.3523,0.418685 -0.43847,0.698274 -0.41902,1.359534 0.0226,0.768697 -0.11488,1.503719 -0.55417,2.962273 -0.0939,0.311604 -0.23456,1.1714 -0.3127,1.910659 -0.0781,0.739259 -0.22907,1.564145 -0.33541,1.83308 -0.10634,0.268935 -0.19335,0.684914 -0.19335,0.924399 0,0.239485 -0.19137,0.761999 -0.42527,1.161143 -0.23389,0.399143 -0.47834,1.07745 -0.54321,1.507348 -0.0649,0.429899 -0.25448,1.016123 -0.42135,1.302722 -0.22275,0.382587 -0.30764,0.933287 -0.31938,2.071904 -0.009,0.852948 -0.0939,1.947234 -0.18921,2.431748 -0.0953,0.484513 -0.15655,1.27175 -0.13616,1.749415 0.0271,0.635116 -0.0747,1.07851 -0.37893,1.650114 -0.32697,0.614351 -0.44176,1.171959 -0.53632,2.605445 -0.0864,1.309681 -0.21269,1.979195 -0.44802,2.375021 -0.31064,0.52252 -0.31211,0.56843 -0.0282,0.88216 0.30966,0.34216 0.41516,1.51433 0.151,1.6776 -0.19044,0.1177 -0.41944,2.47444 -0.45721,4.70536 -0.0162,0.95533 -0.121,1.90769 -0.23294,2.11636 -0.11193,0.20867 -0.20352,0.50955 -0.20352,0.66863 0,0.15908 -0.31631,1.07376 -0.7029,2.03264 l -0.7029,1.7434 0.10354,2.16488 c 0.0835,1.74658 0.054,2.24053 -0.15294,2.55635 -0.14107,0.2153 -0.30944,0.67367 -0.37415,1.0186 -0.0647,0.34492 -0.22672,0.71766 -0.36002,0.82829 -0.32293,0.26801 -0.30702,0.94067 0.0346,1.46201 0.25781,0.39348 0.24583,0.5435 -0.17334,2.17066 -0.24766,0.96138 -0.57245,1.9344 -0.72176,2.16227 -0.22041,0.33639 -0.23652,0.54408 -0.0857,1.10423 0.22707,0.84329 0.0795,2.56663 -0.26153,3.05347 -0.13778,0.19671 -0.25051,0.7342 -0.25051,1.19441 0,0.50655 -0.14356,1.11816 -0.36379,1.54984 -0.33279,0.65233 -0.35094,0.85854 -0.21303,2.42007 0.11515,1.30369 0.0956,1.86198 -0.0826,2.3631 -0.14369,0.40405 -0.1923,0.95642 -0.12653,1.43776 0.0587,0.4299 0.13491,1.09428 0.16926,1.47642 0.0344,0.38213 0.18715,1.6172 0.33955,2.74461 0.1524,1.1274 0.2771,2.32485 0.2771,2.66099 0,0.40698 0.18861,0.88278 0.56451,1.4241 0.54238,0.78106 0.56302,0.87247 0.52629,2.33135 -0.0457,1.81495 -0.30958,2.42368 -1.26116,2.90913 -0.88066,0.44928 -1.45594,0.4401 -2.74309,-0.0438 -1.26745,-0.47647 -2.32843,-1.40213 -3.33238,-2.90735 -0.7124,-1.0681 -0.76258,-1.22593 -0.92997,-2.92488 -0.15409,-1.56387 -0.13791,-1.9044 0.12524,-2.6362 0.25239,-0.70189 0.26571,-0.90683 0.0808,-1.24383 -0.2641,-0.48138 -0.5097,-1.88862 -0.60091,-3.44317 -0.0364,-0.62096 -0.11396,-1.41181 -0.17229,-1.75744 -0.0704,-0.41703 -0.0129,-0.80852 0.17083,-1.16383 0.17621,-0.34075 0.27686,-0.97864 0.27686,-1.75456 0,-0.88962 0.0959,-1.40311 0.35476,-1.89976 0.28797,-0.55247 0.34944,-0.97043 0.32651,-2.21998 -0.0548,-2.98757 0.0273,-4.60688 0.26581,-5.2408 0.13264,-0.35253 0.29214,-0.94551 0.35446,-1.31772 0.0623,-0.37222 0.2157,-0.8412 0.34084,-1.04218 0.12515,-0.20098 0.27077,-0.82092 0.3236,-1.37763 0.0528,-0.55671 0.21492,-1.19362 0.3602,-1.41534 0.42522,-0.64897 0.72562,-2.60168 0.48237,-3.13556 -0.28004,-0.61463 -0.25414,-1.48071 0.0673,-2.25003 0.16309,-0.39033 0.25275,-1.03638 0.22591,-1.6279 -0.0245,-0.53941 0.0493,-1.15147 0.16384,-1.36014 0.11458,-0.20867 0.20833,-0.77846 0.20833,-1.26621 0,-0.57673 0.13374,-1.14253 0.38247,-1.61811 0.31511,-0.60248 0.4053,-1.15963 0.51207,-3.16304 0.36763,-6.898135 0.53351,-8.597968 0.83901,-8.597968 0.0714,0 0.16773,-0.725691 0.21413,-1.612646 0.0464,-0.886955 0.16623,-1.766293 0.26631,-1.954083 0.27255,-0.511427 0.56693,-3.263777 0.41032,-3.836403 -0.12411,-0.453804 -0.20438,-0.498604 -0.86796,-0.484428 -0.61184,0.01307 -0.85034,0.132224 -1.4609,0.729847 -0.44885,0.439337 -1.39821,1.028605 -2.46665,1.531055 -0.95533,0.449256 -2.0887,1.101418 -2.5186,1.449249 -1.04543,0.845856 -1.66606,1.224572 -2.00679,1.224572 -0.15513,0 -0.68548,0.354323 -1.17856,0.787385 -0.9933,0.872392 -2.46439,1.644363 -3.13356,1.644363 -0.239106,0 -0.478846,0.07136 -0.532751,0.158583 -0.05391,0.08722 -0.403292,0.21016 -0.776415,0.273198 -0.373123,0.06304 -0.814726,0.265249 -0.98134,0.449355 -0.217652,0.240503 -0.533864,0.334738 -1.123227,0.334738 -0.512134,0 -0.9004,0.09652 -1.033534,0.256941 -0.448141,0.539977 -2.062031,1.152972 -3.639614,1.382417 -0.42385,0.06164 -1.010075,0.219545 -1.302723,0.350875 -0.292647,0.13134 -1.040148,0.28328 -1.661112,0.33764 -0.713372,0.0625 -1.200022,0.19568 -1.321871,0.3619 -0.106065,0.14468 -0.428432,0.26306 -0.716371,0.26306 -0.287939,0 -0.865547,0.12142 -1.283573,0.26982 -0.422341,0.14993 -1.67396,0.31642 -2.816913,0.37471 -1.48431,0.0757 -2.081779,0.16982 -2.146363,0.33812 -0.05265,0.1372 -0.354922,0.23323 -0.734173,0.23323 -0.579611,0 -2.298335,0.41615 -2.683146,0.64966 -0.08339,0.0506 -0.845477,0.0767 -1.693539,0.0581 -0.991826,-0.0218 -1.54193,0.0318 -1.54193,0.15026 0,0.10128 -0.197874,0.18415 -0.43972,0.18415 -0.546016,0 -2.406372,0.61683 -2.965734,0.98334 -0.354926,0.23256 -0.415864,0.41193 -0.415864,1.2241 0,0.81916 -0.05052,0.96482 -0.362989,1.04654 -0.296373,0.0775 -0.340203,0.17811 -0.238827,0.54825 0.06829,0.24933 0.13038,0.76598 0.13798,1.14811 0.02294,1.15347 -0.267265,4.48842 -0.42798,4.91823 -0.0827,0.22117 -0.150426,0.84647 -0.150504,1.38957 -1.51e-4,1.04925 -0.36556,3.07734 -0.789433,4.3815 -0.140972,0.43374 -0.28916,1.52803 -0.329306,2.43175 -0.13642,3.07095 -0.392897,5.47797 -0.629315,5.90607 -0.243783,0.44143 -0.399564,1.60222 -0.675009,5.02982 -0.153456,1.90958 -0.350428,3.04344 -0.598403,3.44467 -0.15675,0.25363 -0.973406,4.47003 -0.973406,5.02571 0,0.24619 -0.105571,0.57102 -0.234603,0.72184 -0.292226,0.34158 -0.733115,1.74878 -0.884173,2.82204 -0.06277,0.44597 -0.227538,0.90498 -0.366155,1.02002 -0.138618,0.11504 -0.252426,0.37547 -0.252907,0.57872 -4.81e-4,0.20325 -0.313249,0.76036 -0.69504,1.23803 -0.381791,0.47766 -0.851353,1.11108 -1.043472,1.40759 -0.192119,0.29651 -0.645056,0.67248 -1.006527,0.83548 -0.36147,0.163 -1.083505,0.68938 -1.60452,1.16973 -1.171697,1.08026 -1.917594,1.34019 -3.848495,1.34114 -1.314364,6.5e-4 -1.524829,-0.0409 -1.612825,-0.31812 -0.05566,-0.17537 -0.300967,-0.51862 -0.545124,-0.76278 -0.389238,-0.38924 -0.452554,-0.62137 -0.513998,-1.88447 -0.03854,-0.7923 -0.148669,-1.46674 -0.244728,-1.49876 -0.09606,-0.032 -0.174653,-0.54074 -0.174653,-1.13049 0,-0.58975 -0.07524,-1.33463 -0.167205,-1.65528 -0.13408,-0.46751 -0.09967,-0.7154 0.173696,-1.25124 0.187496,-0.36752 0.340901,-0.82518 0.340901,-1.01703 0,-0.21287 0.303978,-0.57094 0.78003,-0.91882 0.429017,-0.31351 0.828171,-0.74535 0.88701,-0.95963 0.0622,-0.22655 0.187632,-0.33978 0.299672,-0.27053 0.105981,0.0655 0.462374,0.16292 0.791984,0.2165 0.541987,0.0881 0.617292,0.1721 0.787533,0.87846 0.150121,0.62289 0.271783,0.79287 0.60078,0.83941 0.491721,0.0695 1.411272,-0.83738 1.411272,-1.39191 0,-0.49747 0.481757,-1.91009 1.161684,-3.4063 0.316403,-0.69626 0.577931,-1.51697 0.581172,-1.82381 0.0032,-0.30683 0.156916,-0.87054 0.341499,-1.25267 0.265446,-0.54954 0.336837,-1.08057 0.341499,-2.54018 0.0036,-1.12956 0.100939,-2.11478 0.250917,-2.53987 0.27274,-0.77302 0.553081,-2.92754 0.706355,-5.42857 0.175844,-2.86934 0.288196,-3.82718 0.438054,-3.73456 0.237354,0.1467 0.376569,-0.85153 0.320255,-2.29635 -0.0414,-1.06215 0.01243,-1.44807 0.251618,-1.80411 0.167354,-0.24911 0.417769,-1.09841 0.556476,-1.88734 0.138707,-0.78893 0.321716,-1.52307 0.406686,-1.63143 0.141595,-0.18057 0.417574,-2.15301 0.416416,-2.97616 -7.89e-4,-0.56016 -0.256755,-1.72942 -0.399402,-1.82448 -0.07223,-0.0481 -0.05414,-0.43895 0.04021,-0.86848 0.09435,-0.42953 0.206796,-1.19373 0.249889,-1.69823 0.07293,-0.8538 0.04026,-0.95206 -0.472152,-1.42007 -0.388319,-0.35468 -0.811918,-0.5382 -1.437843,-0.62294 -0.488038,-0.0661 -1.092381,-0.2251 -1.342985,-0.35339 -0.250603,-0.12829 -0.496014,-0.19288 -0.545357,-0.14354 -0.04934,0.0493 -0.486772,-0.0402 -0.972064,-0.19888 -0.629482,-0.2059 -1.088786,-0.51982 -1.602679,-1.0954 -0.396181,-0.44374 -1.109318,-1.21749 -1.58475,-1.719443 l -0.864422,-0.912651 0.121765,-0.91116 c 0.145935,-1.092032 0.402673,-1.413009 1.573102,-1.96671 1.12424,-0.531851 1.25197,-0.527099 1.953713,0.07269 0.766115,0.654805 2.146129,1.069712 3.55794,1.069712 1.271856,0 1.510687,-0.186965 1.510687,-1.182616 0,-0.280869 0.117245,-0.842978 0.260545,-1.249132 0.172171,-0.487983 0.260544,-1.398766 0.260544,-2.685181 0,-1.070696 0.05777,-2.00449 0.128379,-2.075098 0.07061,-0.07061 0.139262,-0.493993 0.152564,-0.940855 0.0133,-0.446862 0.198166,-1.203293 0.410809,-1.680958 0.352902,-0.792732 0.376852,-1.038916 0.274593,-2.822564 -0.06162,-1.074746 -0.05022,-1.954243 0.02533,-1.954438 0.07554,-1.96e-4 0.143932,-0.605961 0.151971,-1.346147 0.008,-0.740185 0.144825,-1.840625 0.303968,-2.445422 0.168385,-0.639913 0.2898,-1.765467 0.290423,-2.692292 7.21e-4,-1.07312 0.08571,-1.754957 0.260544,-2.090181 0.142711,-0.273636 0.259475,-0.922365 0.259475,-1.44162 0,-0.519256 0.10869,-1.155168 0.241535,-1.41314 0.132844,-0.257971 0.453277,-1.094346 0.712074,-1.858609 0.258796,-0.764264 0.655183,-1.663142 0.880859,-1.997508 0.225676,-0.334365 0.529018,-1.15508 0.674093,-1.823811 0.393435,-1.813552 0.46713,-2.041314 0.828193,-2.559601 0.229888,-0.329993 0.314718,-0.70161 0.277549,-1.215874 -0.05274,-0.729769 -0.06372,-0.741354 -0.748315,-0.79013 -0.382132,-0.02723 -0.772948,-0.0759 -0.868481,-0.108157 -0.364081,-0.122947 -0.521089,-0.09631 -0.521089,0.08842 0,0.105216 -0.350526,0.378788 -0.778947,0.607937 -0.600691,0.321292 -1.046477,0.416635 -1.948012,0.416635 -0.642987,0 -1.503992,0.111867 -1.913346,0.248594 -0.409354,0.136727 -1.252341,0.349078 -1.873305,0.471892 -5.028883,2.290309 -2.631798,-0.169092 -7.608316,0.919605 -0.715502,0.159688 -1.164681,0.373901 -1.432994,0.683392 -0.467231,0.538937 -0.479597,0.665223 -0.102103,1.042717 0.182077,0.182077 0.222773,0.331009 0.110182,0.403223 -0.249308,0.159904 -0.925535,1.527479 -0.811622,1.641392 0.237243,0.237243 -0.35392,0.823978 -1.00752,0.999974 -0.395754,0.106565 -0.908731,0.31771 -1.139949,0.46921 -0.355833,0.23315 -0.403299,0.366591 -0.309068,0.868884 0.187881,1.001491 -0.03152,1.565172 -0.70382,1.808281 -0.327595,0.11846 -0.595628,0.277843 -0.595628,0.354184 0,0.07634 -0.08653,0.138803 -0.192279,0.138803 -0.105754,0 -0.146831,-0.118439 -0.09128,-0.263198 0.08165,-0.212773 -0.03515,-0.254369 -0.609666,-0.21712 -0.705471,0.04574 -0.717435,0.03626 -1.637411,-1.297943 -0.537143,-0.778994 -0.970639,-1.618747 -1.03115,-1.997508 -0.05742,-0.359417 -0.256551,-1.143649 -0.442511,-1.742736 -0.382589,-1.232552 -0.404874,-1.822736 -0.09523,-2.522166 z m 15.442318,84.925512 c 0.191066,-0.17291 0.347393,-0.3811 0.347393,-0.46264 0,-0.0815 -0.156327,-0.0506 -0.347393,0.0687 -0.191065,0.11932 -0.347392,0.32751 -0.347392,0.46263 0,0.18888 0.08032,0.173 0.347392,-0.0687 z m 2.043111,-2.80463 c 0.265708,0.16421 0.911207,-0.348 1.597131,-1.26734 0.784732,-1.05178 0.897381,-1.40875 0.311349,-0.98664 -0.21495,0.15483 -0.762093,0.53439 -1.215874,0.84346 -0.565307,0.38504 -0.825058,0.68265 -0.825058,0.94531 0,0.21084 0.0596,0.42018 0.132452,0.46521 z m 2.183499,-7.3566 c 0.127377,0 0.231595,-0.11601 0.231595,-0.25779 0,-0.19513 -0.05629,-0.21107 -0.231595,-0.0656 -0.127378,0.10571 -0.231595,0.22172 -0.231595,0.25779 0,0.0361 0.104217,0.0656 0.231595,0.0656 z m 0.747906,-0.26019 c 0.08856,0.23079 0.14073,0.24245 0.257885,0.0576 0.197529,-0.31161 0.192339,-1.18701 -0.007,-1.18701 -0.296437,0 -0.438607,0.64008 -0.250847,1.12938 z m 0.854448,-8.46372 c 0.05653,-0.0565 0.11865,-0.20764 0.138051,-0.33581 0.0194,-0.12817 0.09181,-0.32345 0.160903,-0.43396 0.08432,-0.13485 0.01438,-0.17183 -0.212701,-0.11244 -0.186081,0.0487 -0.3681,0.21724 -0.404486,0.37461 -0.07228,0.31263 0.153337,0.6725 0.318233,0.5076 z m 1.548667,-12.11965 c 0.126536,0 0.648137,-1.06434 0.563218,-1.14925 -0.22316,-0.22317 -0.645605,0.20003 -0.645605,0.64675 0,0.27637 0.03707,0.5025 0.08239,0.5025 z m 1.312962,-9.87651 c 0.40356,-0.48441 0.43473,-0.71896 0.09554,-0.71896 -0.274277,0 -0.417322,0.26049 -0.429224,0.78163 -0.0074,0.32505 0.01403,0.32102 0.33368,-0.0627 z m -0.0058,-1.58744 c 0.09553,0 0.173696,-0.11725 0.173696,-0.26055 0,-0.1433 -0.07816,-0.26054 -0.173696,-0.26054 -0.09553,0 -0.173696,0.11724 -0.173696,0.26054 0,0.1433 0.07816,0.26055 0.173696,0.26055 z m 1.195615,-15.806365 c 0.167112,0 0.361503,-0.589044 0.36528,-1.10687 0.002,-0.269466 -0.04231,-0.288158 -0.258173,-0.109004 -0.277801,0.230554 -0.364598,1.215874 -0.107107,1.215874 z m 1.225882,-9.726992 c 0.08989,0 0.211753,-0.07816 0.270795,-0.173697 0.05904,-0.09553 -0.01451,-0.173696 -0.163445,-0.173696 -0.148938,0 -0.270796,0.07816 -0.270796,0.173696 0,0.09553 0.07355,0.173697 0.163446,0.173697 z m 3.15293,-13.895703 c 0.151696,0 0.163825,-0.103921 0.211111,-1.80889 0.02469,-0.890278 -0.02882,-1.221777 -0.206857,-1.281454 -0.19131,-0.06413 -0.216663,0.07622 -0.124632,0.689931 0.123208,0.821603 -0.220709,1.995158 -0.513416,1.751944 -0.08814,-0.07324 -0.01219,0.0427 0.168776,0.257652 0.180971,0.214949 0.390229,0.390817 0.465018,0.390817 z m 1.894534,-6.947851 c 0.09553,0 0.173696,-0.121858 0.173696,-0.270796 0,-0.148937 -0.07816,-0.222488 -0.173696,-0.163445 -0.09553,0.05904 -0.173697,0.1809 -0.173697,0.270795 0,0.08989 0.07816,0.163446 0.173697,0.163446 z m 9.658726,40.123841 c 0.339284,0 0.301117,-0.129814 -0.101522,-0.3453 -0.280232,-0.149976 -0.324789,-0.135108 -0.241961,0.08074 0.05584,0.14551 0.210405,0.264563 0.343483,0.264563 z m 13.963966,-3.039685 c 0.09553,0.05904 0.173697,0.02457 0.173697,-0.0766 0,-0.101171 -0.07816,-0.183947 -0.173697,-0.183947 -0.09553,0 -0.173696,0.03447 -0.173696,0.0766 0,0.04213 0.07816,0.124905 0.173696,0.183947 z m 13.482899,39.913685 c 0.12822,0.12822 1.28128,-0.71725 1.28128,-0.93948 0,-0.2388 -1.17618,-0.1797 -1.27453,0.064 -0.12792,0.31703 -0.13127,0.75092 -0.007,0.87544 z m 0.93389,-6.12976 c 0.0926,-0.1433 0.16408,-0.41687 0.15883,-0.60793 l -0.01,-0.3474 -0.14928,0.3474 c -0.0821,0.19106 -0.15357,0.46463 -0.15883,0.60793 -0.008,0.2316 0.009,0.2316 0.15883,0 z m 4.66853,-37.692091 c 0.0838,0 0.24396,-0.110286 0.35583,-0.245081 0.2259,-0.272196 -0.0308,-0.550597 -0.33456,-0.362856 -0.21403,0.132279 -0.23067,0.607937 -0.0213,0.607937 z m 3.03307,-18.411806 c 0.12797,0 0.32219,-0.175868 0.4316,-0.390817 0.10941,-0.214949 0.32195,-0.559235 0.47231,-0.765081 0.44335,-0.606937 -0.0302,-0.671964 -0.6174,-0.08478 -0.53486,0.534859 -0.69785,1.240675 -0.28651,1.240675 z m 0.33185,1.788223 c 0.53134,-0.102068 0.6541,-0.398653 0.16502,-0.398653 -0.27355,0 -0.79336,0.342946 -0.68321,0.450747 0.0223,0.02182 0.25548,-0.0016 0.51819,-0.05209 z m 2.8519,-17.8837 c 0.12275,0.122755 0.7523,-0.369052 0.7523,-0.587704 0,-0.181503 -0.52127,-0.359443 -0.71046,-0.24252 -0.18384,0.113618 -0.21141,0.660659 -0.0418,0.830224 z m 1.62078,7.410662 c 0.0955,0 0.1737,-0.08278 0.1737,-0.183947 0,-0.101171 -0.0782,-0.13564 -0.1737,-0.0766 -0.0955,0.05904 -0.17369,0.141819 -0.17369,0.183947 0,0.04213 0.0782,0.0766 0.17369,0.0766 z"
       id="path7"
       sodipodi:nodetypes="csssssssssssscsssssssssscssssssssssssssssssssssssssssssssssssssssssssssscssssccsssscssssssscssccscssssssccssssscsssssssssssccssssssssssssccsssssssssssssssssssssssscssssssssssssssssssssscssssssscssssssssssssssssssssssssssssssssssssscsscsssssssssscssscsccsscsssssssssssscsssssssssssssssssssssssssssssssssccssssssssssssssssscssccssscssssssscssccsssssscssssssssssssssssssssssssssssscsscccccscccsssssssssssssssscssccsssss" /></g></svg>
